<?xml version="1.0" encoding="UTF-8"?>
<svg id="Warstwa_2" data-name="Warstwa 2" xmlns="http://www.w3.org/2000/svg" xmlns:xlink="http://www.w3.org/1999/xlink" viewBox="0 0 380.29 383.26">
  <defs>
    <style>
      .cls-1 {
        fill: #fff;
      }

      .cls-2 {
        fill: url(#Biały_Czarny);
      }

      .cls-3 {
        fill: #2e3192;
      }

      .cls-4 {
        fill: none;
      }

      .cls-5 {
        fill: #fafaff;
      }

      .cls-6 {
        fill: url(#Gradient_bez_nazwy_26);
      }
    </style>
    <linearGradient id="Gradient_bez_nazwy_26" data-name="Gradient bez nazwy 26" x1=".1" y1="191.27" x2="380.29" y2="191.27" gradientUnits="userSpaceOnUse">
      <stop offset="0" stop-color="#000"/>
      <stop offset="1" stop-color="#fff"/>
    </linearGradient>
    <linearGradient id="Biały_Czarny" data-name="Biały, Czarny" x1="0" y1="208.28" x2="380.17" y2="208.28" gradientUnits="userSpaceOnUse">
      <stop offset="0" stop-color="#fff"/>
      <stop offset="1" stop-color="#000"/>
    </linearGradient>
  </defs>
  <g id="Warstwa_1-2" data-name="Warstwa 1">
    <path class="cls-4" d="M66.83,191.17c.1,77.73,55.09,138.25,122.89,153.92,68.12-15.41,123.57-76.05,123.76-153.92-.1-77.73-55.09-138.25-122.89-153.92-68.12,15.41-123.57,76.05-123.76,153.92Z"/>
    <path class="cls-3" d="M208.83,1.04c-29.66-3.16-60.72,.74-91.05,13.19C47.44,42.94,1.04,112.15,.05,188c.02-.95,.04-1.9,.07-2.85C3.6,72.6,103.45-9.08,208.83,1.04Z"/>
    <path class="cls-3" d="M6.37,240.24c14.38,54.38,52.36,100.95,104.78,124.79,19.89,9.05,40.22,14.33,60.34,16.26C94.43,373.1,26.86,317.29,6.37,240.24Z"/>
    <path class="cls-6" d="M.12,185.15c1.99-57,35.17-109.65,86.3-135.24,34.49-17.22,70.88-20.34,104.17-12.65,67.8,15.66,122.79,76.19,122.89,153.92-.2,77.87-55.64,138.51-123.76,153.92-33.05,7.48-69.09,4.3-103.25-12.73C35.17,306.72,1.97,253.98,.11,196.8c0-.03,0-.05,0-.08,0,.3,.01,.59,.02,.89,.02,.77,.06,1.54,.09,2.31,.01,.28,.02,.55,.04,.83,.04,.82,.09,1.63,.14,2.44,.01,.24,.03,.48,.04,.72,.05,.81,.11,1.63,.17,2.44,.02,.25,.04,.5,.06,.75,.06,.79,.13,1.59,.21,2.38,.03,.28,.05,.56,.08,.83,.08,.77,.15,1.53,.24,2.3,.03,.31,.07,.62,.11,.93,.09,.74,.17,1.47,.27,2.21,.04,.35,.09,.7,.14,1.05,.14,1.08,.3,2.17,.46,3.24,.09,.63,.19,1.26,.29,1.88,.08,.47,.16,.93,.24,1.4,.1,.6,.2,1.2,.31,1.8,.09,.5,.18,.99,.28,1.49,.1,.55,.21,1.1,.31,1.65,.11,.55,.22,1.1,.33,1.65,.09,.46,.19,.92,.29,1.38,.14,.64,.28,1.28,.42,1.92,.07,.31,.14,.61,.21,.92,.18,.8,.37,1.59,.56,2.39,0,.01,0,.03,.01,.04,.3,1.23,.61,2.46,.94,3.67,0,0,0,.01,0,.02,20.49,77.05,88.06,132.86,165.12,141.06,29.66,3.16,60.72-.74,91.04-13.19,70.35-28.71,116.75-97.92,117.74-173.77,0-.49,0-.98,0-1.47,0-.56,.01-1.13,0-1.69,0-1.1,0-2.2-.02-3.3,0,0,0-.01,0-.02,0-.54-.02-1.07-.04-1.61,0,0,0-.02,0-.02,0-.23-.01-.45-.02-.68,0-.27-.01-.54-.02-.81-.02-.78-.06-1.55-.09-2.33-.01-.27-.02-.54-.04-.81-.04-.82-.09-1.63-.14-2.44-.01-.24-.03-.48-.04-.73-.05-.81-.11-1.62-.17-2.43-.02-.25-.04-.5-.06-.75-.07-.79-.13-1.59-.21-2.38-.03-.28-.05-.55-.08-.83-.08-.77-.15-1.53-.24-2.3-.03-.31-.07-.62-.11-.94-.09-.73-.17-1.47-.26-2.2-.05-.35-.1-.7-.14-1.05-.14-1.07-.29-2.14-.46-3.2-.1-.64-.19-1.28-.3-1.92-.07-.46-.16-.92-.23-1.38-.1-.6-.2-1.21-.31-1.81-.09-.49-.18-.98-.27-1.48-.1-.55-.21-1.11-.32-1.66-.11-.55-.22-1.09-.33-1.64-.1-.47-.19-.93-.29-1.39-.14-.64-.28-1.27-.42-1.91-.07-.31-.14-.62-.21-.93-.18-.79-.37-1.59-.56-2.38,0-.02,0-.03-.01-.05-13.61-55.96-52.12-104.1-105.72-128.48-19.89-9.05-40.22-14.33-60.34-16.26C103.45-9.08,3.6,72.6,.12,185.15Z"/>
    <path class="cls-2" d="M0,192.29c0,1.1,0,2.2,.02,3.3,0,0,0,.01,0,.02,0,.54,.02,1.07,.04,1.61,0,0,0,.02,0,.02,0,.23,.01,.45,.02,.68,0,.27,.01,.54,.02,.81,.02,.78,.06,1.55,.09,2.33,.01,.27,.02,.54,.04,.81,.04,.82,.09,1.63,.14,2.44,.01,.24,.03,.48,.04,.73,.05,.81,.11,1.62,.17,2.43,.02,.25,.04,.5,.06,.75,.07,.79,.13,1.59,.21,2.38,.03,.28,.05,.55,.08,.83,.08,.77,.15,1.53,.24,2.3,.03,.31,.07,.62,.11,.94,.09,.73,.17,1.47,.26,2.2,.05,.35,.1,.7,.14,1.05,.14,1.07,.29,2.14,.46,3.2,.1,.64,.19,1.28,.3,1.92,.07,.46,.16,.92,.23,1.38,.1,.6,.2,1.21,.31,1.81,.09,.49,.18,.98,.27,1.48,.1,.55,.21,1.11,.32,1.66,.11,.55,.22,1.09,.33,1.64,.1,.47,.19,.93,.29,1.39,.14,.64,.28,1.27,.42,1.91,.07,.31,.14,.62,.21,.93,.18,.79,.37,1.59,.56,2.38,0,.02,0,.03,.01,.05,13.61,55.96,52.12,104.1,105.72,128.48,19.89,9.05,40.22,14.33,60.34,16.26,105.38,10.12,205.22-71.56,208.71-184.11-1.99,57-35.17,109.65-86.3,135.24-34.49,17.22-70.88,20.34-104.17,12.65-.81-.19-1.62-.39-2.42-.59,.82-.17,1.63-.34,2.45-.53-67.8-15.66-122.79-76.19-122.89-153.92,.2-77.87,55.64-138.51,123.76-153.92-33.29-7.69-69.68-4.57-104.17,12.65C35.29,75.5,2.1,128.15,.12,185.15c-.04,1.43-.07,2.86-.08,4.3,0,.57-.01,1.15-.01,1.72,0,.09,0,.19,0,.28H0c0,.28,0,.56,0,.84Z"/>
    <path class="cls-5" d="M256.02,197.02c-27.57-27.45-49.62-38.69-66.14-66.14-27.45,27.57-38.69,49.62-66.14,66.14,27.57,27.45,49.62,38.69,66.14,66.14,27.45-27.57,38.69-49.62,66.14-66.14Z"/>
    <path class="cls-1" d="M256.02,197.02c-27.57-27.45-49.62-38.69-66.14-66.14-27.45,27.57-38.69,49.62-66.14,66.14,27.57,27.45,49.62,38.69,66.14,66.14,27.45-27.57,38.69-49.62,66.14-66.14Z"/>
  </g>
</svg>