<?xml version="1.0" encoding="UTF-8"?>
<svg id="Warstwa_2" data-name="Warstwa 2" xmlns="http://www.w3.org/2000/svg" viewBox="0 0 40 39.98">
  <defs>
    <style>
      .cls-1 {
        fill: #fff;
      }

      .cls-2 {
        fill: #7af55c;
      }

      .cls-3 {
        fill: #ac90ff;
      }
    </style>
  </defs>
  <g id="Warstwa_1-2" data-name="Warstwa 1">
    <path class="cls-1" d="M12.39,1.47C4.99,4.46,.11,11.68,0,19.6c0-.1,0-.2,0-.3C.38,7.56,10.88-.97,21.97,.09"/>
    <path class="cls-3" d="M21.97,.09C10.88-.97,.38,7.56,.01,19.3,.22,13.35,3.71,7.86,9.09,5.19c3.63-1.8,7.46-2.12,10.96-1.32,7.13,1.63,12.92,7.95,12.93,16.06-.02,8.13-5.85,14.46-13.02,16.06-3.48,.78-7.27,.45-10.86-1.33C3.7,31.99,.21,26.49,.01,20.52c0,0,0,0,0,0,0,.03,0,.06,0,.09,0,.08,0,.16,0,.24,0,.03,0,.06,0,.09,0,.09,0,.17,.01,.25,0,.03,0,.05,0,.08,0,.08,.01,.17,.02,.25,0,.03,0,.05,0,.08,0,.08,.01,.17,.02,.25,0,.03,0,.06,0,.09,0,.08,.02,.16,.03,.24,0,.03,0,.06,.01,.1,0,.08,.02,.15,.03,.23,0,.04,0,.07,.01,.11,.02,.11,.03,.23,.05,.34,0,.07,.02,.13,.03,.2,0,.05,.02,.1,.02,.15,.01,.06,.02,.13,.03,.19,0,.05,.02,.1,.03,.15,.01,.06,.02,.11,.03,.17,.01,.06,.02,.11,.04,.17,0,.05,.02,.1,.03,.14,.01,.07,.03,.13,.04,.2,0,.03,.01,.06,.02,.1,.02,.08,.04,.17,.06,.25,0,0,0,0,0,0,.03,.13,.06,.26,.1,.38,0,0,0,0,0,0,2.16,8.04,9.26,13.87,17.37,14.72,3.12,.33,6.39-.08,9.58-1.38,7.4-3,12.28-10.22,12.38-18.14,0-.05,0-.1,0-.15,0-.06,0-.12,0-.18,0-.11,0-.23,0-.34,0,0,0,0,0,0,0-.06,0-.11,0-.17,0,0,0,0,0,0,0-.02,0-.05,0-.07,0-.03,0-.06,0-.08,0-.08,0-.16,0-.24,0-.03,0-.06,0-.08,0-.09,0-.17-.01-.25,0-.03,0-.05,0-.08,0-.08-.01-.17-.02-.25,0-.03,0-.05,0-.08,0-.08-.01-.17-.02-.25,0-.03,0-.06,0-.09,0-.08-.02-.16-.03-.24,0-.03,0-.07-.01-.1,0-.08-.02-.15-.03-.23,0-.04-.01-.07-.01-.11-.02-.11-.03-.22-.05-.33-.01-.07-.02-.13-.03-.2,0-.05-.02-.1-.02-.14-.01-.06-.02-.13-.03-.19,0-.05-.02-.1-.03-.15-.01-.06-.02-.12-.03-.17-.01-.06-.02-.11-.03-.17-.01-.05-.02-.1-.03-.15-.01-.07-.03-.13-.04-.2,0-.03-.01-.06-.02-.1-.02-.08-.04-.17-.06-.25,0,0,0,0,0,0-1.43-5.84-5.48-10.86-11.12-13.41-2.09-.94-4.23-1.5-6.35-1.7"/>
    <path class="cls-2" d="M0,20.05c0,.11,0,.23,0,.34,0,0,0,0,0,0,0,.06,0,.11,0,.17,0,0,0,0,0,0,0,.02,0,.05,0,.07,0,.03,0,.06,0,.08,0,.08,0,.16,0,.24,0,.03,0,.06,0,.08,0,.09,0,.17,.01,.25,0,.03,0,.05,0,.08,0,.08,.01,.17,.02,.25,0,.03,0,.05,0,.08,0,.08,.01,.17,.02,.25,0,.03,0,.06,0,.09,0,.08,.02,.16,.03,.24,0,.03,0,.07,.01,.1,0,.08,.02,.15,.03,.23,0,.04,.01,.07,.01,.11,.02,.11,.03,.22,.05,.33,.01,.07,.02,.13,.03,.2,0,.05,.02,.1,.02,.14,.01,.06,.02,.13,.03,.19,0,.05,.02,.1,.03,.15,.01,.06,.02,.12,.03,.17,.01,.06,.02,.11,.03,.17,.01,.05,.02,.1,.03,.15,.01,.07,.03,.13,.04,.2,0,.03,.01,.06,.02,.1,.02,.08,.04,.17,.06,.25,0,0,0,0,0,0,1.43,5.84,5.48,10.86,11.12,13.41,2.09,.94,4.23,1.5,6.35,1.7,11.08,1.06,21.59-7.47,21.95-19.21-.21,5.95-3.7,11.44-9.08,14.12-3.63,1.8-7.46,2.12-10.96,1.32-.09-.02-.17-.04-.25-.06,.09-.02,.17-.04,.26-.06-7.13-1.63-12.92-7.95-12.93-16.06,.02-8.13,5.85-14.46,13.02-16.06-3.5-.8-7.33-.48-10.96,1.32C3.71,7.86,.22,13.35,.01,19.3c0,.15,0,.3,0,.45,0,.06,0,.12,0,.18,0,0,0,.02,0,.03H0s0,.06,0,.09Z"/>
    <path d="M26.93,20.54c-2.9-2.86-5.22-4.04-6.96-6.9-2.89,2.88-4.07,5.18-6.96,6.9,2.9,2.87,5.22,4.04,6.96,6.9,2.89-2.88,4.07-5.18,6.96-6.9Z"/>
  </g>
</svg>